# xmcd
#
# Track frame offsets: 
#        150
#        17700
#        34200
#        51750
#        68400
#        84900
#
# Disc length: 1328 seconds
#
# Revision: 0
# Processed by: cddbd v1.5.2PL0 Copyright (c) Steve Scherf et al.
# Submitted via: ExactAudioCopy v0.99pb4
#
DISCID=3e052e06
DTITLE=Emilie Marsh - Le sourire du chat
DYEAR=2006
DGENRE=Chanson
TTITLE0=Même pas mal
TTITLE1=Merci pour la couleur
TTITLE2=Le sourire du chat
TTITLE3=CoDac
TTITLE4=J'ai perdu la mémoire
TTITLE5=Labyrinthique
EXTD=
EXTT0=
EXTT1=
EXTT2=
EXTT3=
EXTT4=
EXTT5=
PLAYORDER=
